<mxfile host="65bd71144e">
    <diagram id="UiU1ypsSBt3X7zHmM9KS" name="Page-1">
        <mxGraphModel dx="1560" dy="563" grid="1" gridSize="10" guides="1" tooltips="1" connect="1" arrows="1" fold="1" page="1" pageScale="1" pageWidth="850" pageHeight="1100" math="0" shadow="0">
            <root>
                <mxCell id="0"/>
                <mxCell id="1" parent="0"/>
                <mxCell id="7" value="Implementar un aplicación donde se represente a personas que hablan entre sí por celulares.&lt;br/&gt; Juliana tiene un Motorola G5, y Catalina tiene un iPhone.&lt;br/&gt; El Motorola G5 pierde 0,25 &quot;puntos&quot; de batería por cada llamada, y el iPhone pierde 0,1% de la&lt;br/&gt; duración de cada llamada en batería. Ambos celulares tienen 5 &quot;puntos&quot; de batería como&lt;br/&gt; máximo.&lt;br/&gt; Implementar a Juliana, Catalina, el Motorola G5 de Juliana y el iPhone de Catalina y hacer una&lt;br/&gt; aplicación de consola en donde Juliana y Catalina se hagan llamadas telefónicas de distintas&lt;br/&gt; duraciones.&lt;br/&gt; Se pide al finalizar cada llamada:&lt;br/&gt; 1. Conocer la cantidad de batería de cada celular.&lt;br/&gt; 2. Saber si un celular está apagado (si está sin batería).&lt;br/&gt; 3. Recargar un celular (que vuelva a tener su batería completa).&lt;br/&gt; 4. Saber si Juliana tiene el celular apagado; saber si Catalina tiene el celular apagado." style="text;html=1;align=center;verticalAlign=middle;whiteSpace=wrap;rounded=0;" parent="1" vertex="1">
                    <mxGeometry x="30" y="120" width="740" height="330" as="geometry"/>
                </mxCell>
                <mxCell id="8" value="&lt;i&gt;abstract class Celular&lt;/i&gt;" style="swimlane;whiteSpace=wrap;html=1;" parent="1" vertex="1">
                    <mxGeometry x="-40" y="575" width="290" height="355" as="geometry"/>
                </mxCell>
                <mxCell id="9" value="-private _nombreTipo: string" style="text;html=1;align=center;verticalAlign=middle;resizable=0;points=[];autosize=1;strokeColor=none;fillColor=none;" parent="8" vertex="1">
                    <mxGeometry y="40" width="170" height="30" as="geometry"/>
                </mxCell>
                <mxCell id="10" value="-private _bateriaPuntos: number;" style="text;html=1;align=center;verticalAlign=middle;resizable=0;points=[];autosize=1;strokeColor=none;fillColor=none;" parent="8" vertex="1">
                    <mxGeometry x="-5" y="70" width="200" height="30" as="geometry"/>
                </mxCell>
                <mxCell id="11" value="+public get bateria()" style="text;html=1;align=center;verticalAlign=middle;resizable=0;points=[];autosize=1;strokeColor=none;fillColor=none;" parent="8" vertex="1">
                    <mxGeometry y="175" width="130" height="30" as="geometry"/>
                </mxCell>
                <mxCell id="12" value="+public get nombreTipo()" style="text;html=1;align=center;verticalAlign=middle;resizable=0;points=[];autosize=1;strokeColor=none;fillColor=none;" parent="8" vertex="1">
                    <mxGeometry x="-5" y="145" width="160" height="30" as="geometry"/>
                </mxCell>
                <mxCell id="14" value="-private _estado: boolean;" style="text;html=1;align=center;verticalAlign=middle;resizable=0;points=[];autosize=1;strokeColor=none;fillColor=none;" parent="8" vertex="1">
                    <mxGeometry x="-5" y="100" width="160" height="30" as="geometry"/>
                </mxCell>
                <mxCell id="15" value="+public abstract realizaLlamada(duracion: number);" style="text;html=1;align=center;verticalAlign=middle;resizable=0;points=[];autosize=1;strokeColor=none;fillColor=none;" parent="8" vertex="1">
                    <mxGeometry x="-5" y="285" width="300" height="30" as="geometry"/>
                </mxCell>
                <mxCell id="19" value="" style="endArrow=none;html=1;exitX=0.038;exitY=1.08;exitDx=0;exitDy=0;exitPerimeter=0;" parent="8" edge="1">
                    <mxGeometry width="50" height="50" relative="1" as="geometry">
                        <mxPoint x="1.5200000000001546" y="145.00000000000009" as="sourcePoint"/>
                        <mxPoint x="290" y="145" as="targetPoint"/>
                    </mxGeometry>
                </mxCell>
                <mxCell id="37" value="+public get estado();" style="text;html=1;align=center;verticalAlign=middle;resizable=0;points=[];autosize=1;strokeColor=none;fillColor=none;" parent="8" vertex="1">
                    <mxGeometry y="255" width="130" height="30" as="geometry"/>
                </mxCell>
                <mxCell id="59" value="+public set bateria(value: number);" style="text;html=1;align=center;verticalAlign=middle;resizable=0;points=[];autosize=1;strokeColor=none;fillColor=none;" parent="8" vertex="1">
                    <mxGeometry x="-5" y="205" width="210" height="30" as="geometry"/>
                </mxCell>
                <mxCell id="60" value="+public abstract recibeLlamada(duracion: number);" style="text;html=1;align=center;verticalAlign=middle;resizable=0;points=[];autosize=1;strokeColor=none;fillColor=none;" parent="8" vertex="1">
                    <mxGeometry y="315" width="290" height="30" as="geometry"/>
                </mxCell>
                <mxCell id="63" value="+public set estado(value: boolean);" style="text;html=1;align=center;verticalAlign=middle;resizable=0;points=[];autosize=1;strokeColor=none;fillColor=none;" parent="8" vertex="1">
                    <mxGeometry x="-5" y="235" width="210" height="30" as="geometry"/>
                </mxCell>
                <mxCell id="21" style="edgeStyle=none;html=1;endArrow=block;endFill=0;" parent="1" source="20" target="8" edge="1">
                    <mxGeometry relative="1" as="geometry"/>
                </mxCell>
                <mxCell id="20" value="class Iphone" style="swimlane;whiteSpace=wrap;html=1;" parent="1" vertex="1">
                    <mxGeometry x="-220" y="945" width="200" height="70" as="geometry"/>
                </mxCell>
                <mxCell id="23" style="edgeStyle=none;html=1;endArrow=block;endFill=0;" parent="1" source="22" target="8" edge="1">
                    <mxGeometry relative="1" as="geometry"/>
                </mxCell>
                <mxCell id="22" value="class MotoG25" style="swimlane;whiteSpace=wrap;html=1;" parent="1" vertex="1">
                    <mxGeometry x="240" y="945" width="200" height="70" as="geometry"/>
                </mxCell>
                <mxCell id="30" style="edgeStyle=none;html=1;endArrow=classic;endFill=0;" parent="1" source="24" edge="1">
                    <mxGeometry relative="1" as="geometry">
                        <mxPoint x="250" y="698" as="targetPoint"/>
                    </mxGeometry>
                </mxCell>
                <mxCell id="40" style="edgeStyle=none;html=1;exitX=1;exitY=0.25;exitDx=0;exitDy=0;entryX=0.452;entryY=-0.005;entryDx=0;entryDy=0;entryPerimeter=0;" parent="1" source="24" target="24" edge="1">
                    <mxGeometry relative="1" as="geometry">
                        <mxPoint x="1000" y="450" as="targetPoint"/>
                        <Array as="points">
                            <mxPoint x="1360" y="628"/>
                            <mxPoint x="1360" y="420"/>
                            <mxPoint x="1000" y="420"/>
                        </Array>
                    </mxGeometry>
                </mxCell>
                <mxCell id="50" style="edgeStyle=none;html=1;exitX=0.25;exitY=0;exitDx=0;exitDy=0;entryX=0.675;entryY=0;entryDx=0;entryDy=0;entryPerimeter=0;" parent="1" source="24" target="8" edge="1">
                    <mxGeometry relative="1" as="geometry">
                        <mxPoint x="160" y="570" as="targetPoint"/>
                        <Array as="points">
                            <mxPoint x="950" y="560"/>
                            <mxPoint x="950" y="490"/>
                            <mxPoint x="160" y="490"/>
                        </Array>
                    </mxGeometry>
                </mxCell>
                <mxCell id="24" value="class Persona" style="swimlane;whiteSpace=wrap;html=1;" parent="1" vertex="1">
                    <mxGeometry x="880" y="575" width="270" height="245" as="geometry"/>
                </mxCell>
                <mxCell id="26" value="private _celular: Celular;" style="text;html=1;align=center;verticalAlign=middle;resizable=0;points=[];autosize=1;strokeColor=none;fillColor=none;" parent="24" vertex="1">
                    <mxGeometry x="5" y="70" width="150" height="30" as="geometry"/>
                </mxCell>
                <mxCell id="25" value="private _nombre: string;" style="text;html=1;align=center;verticalAlign=middle;resizable=0;points=[];autosize=1;strokeColor=none;fillColor=none;" parent="24" vertex="1">
                    <mxGeometry x="5" y="40" width="150" height="30" as="geometry"/>
                </mxCell>
                <mxCell id="27" value="+public llamarA(persona: Persona);" style="text;html=1;align=center;verticalAlign=middle;resizable=0;points=[];autosize=1;strokeColor=none;fillColor=none;" parent="24" vertex="1">
                    <mxGeometry x="10" y="180" width="210" height="30" as="geometry"/>
                </mxCell>
                <mxCell id="28" value="" style="endArrow=none;html=1;" parent="24" edge="1">
                    <mxGeometry width="50" height="50" relative="1" as="geometry">
                        <mxPoint y="110" as="sourcePoint"/>
                        <mxPoint x="270" y="110" as="targetPoint"/>
                    </mxGeometry>
                </mxCell>
                <mxCell id="33" value="+public cargarElCelular();" style="text;html=1;align=center;verticalAlign=middle;resizable=0;points=[];autosize=1;strokeColor=none;fillColor=none;" parent="24" vertex="1">
                    <mxGeometry x="10" y="215" width="160" height="30" as="geometry"/>
                </mxCell>
                <mxCell id="52" value="+public get nombre();" style="text;html=1;align=center;verticalAlign=middle;resizable=0;points=[];autosize=1;strokeColor=none;fillColor=none;" parent="24" vertex="1">
                    <mxGeometry x="5" y="125" width="140" height="30" as="geometry"/>
                </mxCell>
                <mxCell id="53" value="+public get celular();" style="text;html=1;align=center;verticalAlign=middle;resizable=0;points=[];autosize=1;strokeColor=none;fillColor=none;" parent="24" vertex="1">
                    <mxGeometry x="10" y="150" width="130" height="30" as="geometry"/>
                </mxCell>
                <mxCell id="42" value="&lt;font style=&quot;font-size: 14px;&quot;&gt;Se comunican entre sí mediante&lt;/font&gt;" style="text;html=1;align=center;verticalAlign=middle;whiteSpace=wrap;rounded=0;" parent="1" vertex="1">
                    <mxGeometry x="475" y="610" width="150" height="60" as="geometry"/>
                </mxCell>
                <mxCell id="49" value="#class Persona&lt;div&gt;public llamarA(persona: Persona){&lt;/div&gt;&lt;div&gt;this.celular.realizarLlamada(persona.celular, duracion);&lt;/div&gt;&lt;div&gt;}&lt;/div&gt;&lt;div&gt;&amp;nbsp;&lt;/div&gt;" style="text;html=1;align=center;verticalAlign=middle;resizable=0;points=[];autosize=1;strokeColor=none;fillColor=none;" parent="1" vertex="1">
                    <mxGeometry x="845" y="850" width="310" height="90" as="geometry"/>
                </mxCell>
                <mxCell id="51" value="&lt;font style=&quot;font-size: 18px;&quot;&gt;Posee un/hace uso de&lt;/font&gt;" style="text;html=1;align=center;verticalAlign=middle;resizable=0;points=[];autosize=1;strokeColor=none;fillColor=none;" parent="1" vertex="1">
                    <mxGeometry x="450" y="460" width="200" height="40" as="geometry"/>
                </mxCell>
                <mxCell id="54" value="#class Iphone&lt;div&gt;public realizaLlamada(celular:Celular, duracion: number){&lt;/div&gt;&lt;div&gt;if (celular.estado === false){&lt;/div&gt;&lt;div&gt;console.log(`El celular se encuentra apagado `)&lt;/div&gt;&lt;div&gt;} else {&lt;/div&gt;&lt;div&gt;&amp;nbsp; &amp;nbsp; &amp;nbsp; &amp;nbsp; &amp;nbsp; &amp;nbsp; &amp;nbsp; &amp;nbsp; &amp;nbsp; &amp;nbsp; &amp;nbsp; &amp;nbsp; &amp;nbsp; &amp;nbsp; this.bateria -= (duracion*0,1);&lt;/div&gt;&lt;div&gt;console.log(&#39;Batería del celular emisor: ${this.bateria})&lt;/div&gt;&lt;div&gt;&lt;span style=&quot;color: rgb(63, 63, 63);&quot;&gt;&amp;nbsp; &amp;nbsp; &amp;nbsp; &amp;nbsp; &amp;nbsp; &amp;nbsp; &amp;nbsp; &amp;nbsp; &amp;nbsp; &amp;nbsp; &amp;nbsp; &amp;nbsp; &amp;nbsp; &amp;nbsp; &amp;nbsp; &amp;nbsp; &amp;nbsp; &amp;nbsp; &amp;nbsp; &amp;nbsp; &amp;nbsp; &amp;nbsp; &amp;nbsp; &amp;nbsp; celular.recibeLlamada(duracion: number);&lt;/span&gt;&lt;/div&gt;&lt;div&gt;&amp;nbsp; &amp;nbsp; &amp;nbsp; &amp;nbsp; &amp;nbsp; &amp;nbsp; &amp;nbsp; &amp;nbsp; if (this.bateria === 0){&lt;/div&gt;&lt;div&gt;&lt;span style=&quot;white-space: pre;&quot;&gt;&#x9;&lt;/span&gt;&amp;nbsp; &amp;nbsp; &amp;nbsp; &amp;nbsp; &amp;nbsp; &amp;nbsp; &amp;nbsp;this.estado = false;&lt;/div&gt;&lt;div&gt;&lt;span style=&quot;white-space: pre;&quot;&gt;&#x9;&lt;/span&gt;&amp;nbsp; &amp;nbsp; &amp;nbsp;}&lt;/div&gt;&lt;div&gt;&lt;span style=&quot;color: rgb(63, 63, 63); background-color: transparent;&quot;&gt;&amp;nbsp; &amp;nbsp; &amp;nbsp; &amp;nbsp; }&lt;/span&gt;&lt;/div&gt;&lt;div&gt;&lt;span style=&quot;color: rgb(63, 63, 63); background-color: transparent;&quot;&gt;}&lt;/span&gt;&lt;/div&gt;" style="text;html=1;align=center;verticalAlign=middle;whiteSpace=wrap;rounded=0;" parent="1" vertex="1">
                    <mxGeometry x="-290" y="1080" width="400" height="100" as="geometry"/>
                </mxCell>
                <mxCell id="58" value="#class MotoG25&lt;div&gt;public realizaLlamada(celular:Celular, duracion: number){&lt;/div&gt;&lt;div&gt;&amp;nbsp;if (celular.estado === false){&lt;/div&gt;&lt;div&gt;console.log(&#39;El celular se encuentra apagado.&#39;)&lt;/div&gt;&lt;div&gt;} else {&lt;/div&gt;&lt;div&gt;this.bateria-=0.25&lt;/div&gt;&lt;div&gt;celular.recibeLlamada(duracion: number);&lt;/div&gt;&lt;div&gt;if (this.bateria === 0){&lt;/div&gt;&lt;div&gt;this.estado = false;&lt;/div&gt;&lt;div&gt;}&lt;/div&gt;&lt;div&gt;}&lt;/div&gt;&lt;div&gt;}&lt;/div&gt;" style="text;html=1;align=center;verticalAlign=middle;whiteSpace=wrap;rounded=0;" parent="1" vertex="1">
                    <mxGeometry x="140" y="1060" width="430" height="140" as="geometry"/>
                </mxCell>
                <mxCell id="61" value="#class Iphone&lt;div&gt;public recibeLlamada(duracion: number)&lt;/div&gt;&lt;div&gt;{&lt;/div&gt;&lt;div&gt;this.bateria -=(duracion*0,1)&lt;/div&gt;&lt;div&gt;console.log(`Batería del celular receptor: ${this.bateria}`)&lt;/div&gt;&lt;div&gt;if (this.bateria === 0)&lt;/div&gt;&lt;div&gt;&amp;nbsp; {&lt;span style=&quot;color: rgb(63, 63, 63); background-color: transparent;&quot;&gt;this.estado === false; console.log(`Celular ${this.tipo} sin batería. Apagando`)&lt;/span&gt;&lt;span style=&quot;color: rgb(63, 63, 63); background-color: transparent;&quot;&gt;}&lt;/span&gt;&lt;/div&gt;&lt;div&gt;}&lt;/div&gt;" style="text;html=1;align=center;verticalAlign=middle;resizable=0;points=[];autosize=1;strokeColor=none;fillColor=none;" parent="1" vertex="1">
                    <mxGeometry x="-325" y="1235" width="450" height="130" as="geometry"/>
                </mxCell>
                <mxCell id="62" value="#class MotoG25&lt;div&gt;public recibeLlamada()&lt;/div&gt;&lt;div&gt;{&lt;/div&gt;&lt;div&gt;this.bateria -=(0.25)&lt;/div&gt;&lt;div&gt;if (this.bateria === 0)&lt;/div&gt;&lt;div&gt;&amp;nbsp;&amp;nbsp;&lt;span style=&quot;background-color: transparent; color: rgb(63, 63, 63);&quot;&gt;{&lt;/span&gt;&lt;span style=&quot;background-color: transparent; scrollbar-color: rgb(226, 226, 226) rgb(251, 251, 251); color: rgb(63, 63, 63);&quot;&gt;this.estado === false; console.log(`Celular ${this.tipo} sin batería. Apagando`)&lt;/span&gt;&lt;span style=&quot;background-color: transparent; scrollbar-color: rgb(226, 226, 226) rgb(251, 251, 251); color: rgb(63, 63, 63);&quot;&gt;}&lt;/span&gt;&lt;/div&gt;&lt;div&gt;}&lt;/div&gt;" style="text;html=1;align=center;verticalAlign=middle;resizable=0;points=[];autosize=1;strokeColor=none;fillColor=none;" parent="1" vertex="1">
                    <mxGeometry x="130" y="1245" width="450" height="110" as="geometry"/>
                </mxCell>
                <mxCell id="64" value="#class Persona&lt;div&gt;public cargarElCelular()&lt;/div&gt;&lt;div&gt;{&lt;/div&gt;&lt;div&gt;(this.celular).bateria = 100&lt;/div&gt;&lt;div&gt;(this.celular).estado = true;&lt;/div&gt;&lt;div&gt;}&lt;/div&gt;" style="text;html=1;align=center;verticalAlign=middle;resizable=0;points=[];autosize=1;strokeColor=none;fillColor=none;" parent="1" vertex="1">
                    <mxGeometry x="915" y="960" width="170" height="100" as="geometry"/>
                </mxCell>
            </root>
        </mxGraphModel>
    </diagram>
</mxfile>